<svg xmlns="http://www.w3.org/2000/svg" viewBox="0 0 100 100">
  <!-- Background circle -->
  <circle cx="50" cy="50" r="50" fill="#1e3a2f"/>
  <!-- Sun glow -->
  <circle cx="50" cy="50" r="22" fill="none" stroke="#f5c842" stroke-width="1.5" opacity="0.4"/>
  <!-- Sun rays -->
  <g stroke="#f5c842" stroke-width="2.5" stroke-linecap="round">
    <line x1="50" y1="18" x2="50" y2="10"/>
    <line x1="50" y1="82" x2="50" y2="90"/>
    <line x1="18" y1="50" x2="10" y2="50"/>
    <line x1="82" y1="50" x2="90" y2="50"/>
    <line x1="27" y1="27" x2="21" y2="21"/>
    <line x1="73" y1="73" x2="79" y2="79"/>
    <line x1="73" y1="27" x2="79" y2="21"/>
    <line x1="27" y1="73" x2="21" y2="79"/>
  </g>
  <!-- Sun core -->
  <circle cx="50" cy="50" r="16" fill="#f5c842"/>
  <!-- Mountain silhouette -->
  <path d="M0,75 L20,52 L35,62 L50,42 L65,62 L80,52 L100,75 L100,100 L0,100Z" fill="#1e3a2f"/>
  <path d="M0,85 L15,68 L30,76 L50,60 L70,76 L85,68 L100,85 L100,100 L0,100Z" fill="#162e23"/>
</svg>
